#!OML:ASF I:\golf\golf\golf 2\Subject 1\2002-09-07\Subject1.ASF
:FULLY-SPECIFIED
:DEGREES
361
root -5.74346 18.0143 -3.80911 -163.523 -8.15767 -175.9
lowerback -9.05557 14.1778 16.0601
upperback -13.7428 15.7906 1.6955
thorax -6.34818 5.47631 -5.34692
lowerneck -12.9333 -17.1381 -3.64287
upperneck 10.3224 -22.128 -2.22034
head 5.2837 -11.1059 -1.98156
rclavicle 4.13472e-014 -1.59028e-014
rhumerus 102.971 19.8017 -54.4084
rradius 61.1727
rwrist -4.93771
rhand -35.9046 16.8207
rfingers 7.12502
rthumb -9.01772 -12.9665
lclavicle 4.13472e-014 -1.59028e-014
lhumerus 66.3256 18.2417 43.9679
lradius 66.99
lwrist 39.3087
lhand -21.5474 19.0797
lfingers 7.12502
lthumb -175.154 -130.996
rfemur 17.123 -6.28423 23.1458
rtibia 7.19098
rfoot 35.5175 -28.2527
rtoes 24.3209
lfemur -30.9841 -14.4378 -14.7885
ltibia 27.9008
lfoot 43.3309 -44.9443
ltoes 54.2588
362
root -5.74001 18.0141 -3.78388 -163.473 -7.99103 -175.877
lowerback -8.89199 14.1212 16.131
upperback -13.7055 15.7596 1.69827
thorax -6.38492 5.45816 -5.41337
lowerneck -12.9836 -16.9723 -3.56096
upperneck 10.3374 -21.9131 -2.24969
head 5.28468 -11.0003 -1.98533
rclavicle -1.4233e-013 -2.22639e-014
rhumerus 102.264 19.812 -54.5475
rradius 60.6149
rwrist -5.72758
rhand -35.2577 16.8585
rfingers 7.12502
rthumb -8.39348 -12.9547
lclavicle -1.4233e-013 -2.22639e-014
lhumerus 66.0182 17.4652 43.404
lradius 66.3766
lwrist 39.7795
lhand -21.2454 19.1656
lfingers 7.12502
lthumb -174.863 -130.917
rfemur 16.6991 -5.97218 23.1733
rtibia 7.76009
rfoot 35.6861 -27.796
rtoes 23.2324
lfemur -31.0166 -14.4822 -14.7154
ltibia 27.7485
lfoot 43.3948 -44.5805
ltoes 54.5707
363
root -5.73199 18.0154 -3.76098 -163.457 -7.73993 -175.954
lowerback -8.74458 14.0245 15.9997
upperback -13.5986 15.6901 1.7609
thorax -6.40007 5.45198 -5.32416
lowerneck -13.0139 -16.802 -3.46032
upperneck 10.224 -21.6762 -2.38257
head 5.22808 -10.8909 -2.00727
rclavicle 4.92986e-014 4.77083e-015
rhumerus 101.675 19.9634 -54.6677
rradius 60.0157
rwrist -6.35748
rhand -34.8125 16.7588
rfingers 7.12502
rthumb -7.96385 -13.0712
lclavicle 4.92986e-014 4.77083e-015
lhumerus 65.7665 16.7338 42.9563
lradius 65.6649
lwrist 40.1924
lhand -20.8418 19.05
lfingers 7.12502
lthumb -174.473 -131.042
rfemur 16.3223 -5.61271 23.0867
rtibia 8.33491
rfoot 35.4984 -27.6669
rtoes 22.5265
lfemur -30.9809 -14.4085 -14.7807
ltibia 27.5957
lfoot 43.3325 -44.3789
ltoes 54.5869
364
root -5.72264 18.0206 -3.7403 -163.498 -7.48895 -175.976
lowerback -8.61303 13.9091 15.9063
upperback -13.4604 15.5889 1.85861
thorax -6.37869 5.43334 -5.21474
lowerneck -12.9966 -16.5611 -3.24523
upperneck 10.0429 -21.3577 -2.58452
head 5.12386 -10.744 -2.04552
rclavicle -8.18993e-014 -4.29375e-014
rhumerus 101.107 20.2843 -54.869
rradius 59.3834
rwrist -6.66929
rhand -34.1647 18.7872
rfingers 7.12502
rthumb -7.33851 -11.0655
lclavicle -8.18993e-014 -4.29375e-014
lhumerus 65.5317 15.9876 42.5254
lradius 64.9218
lwrist 40.5246
lhand -20.5091 18.9866
lfingers 7.12502
lthumb -174.152 -131.114
rfemur 16.0209 -5.24467 23.064
rtibia 8.86376
rfoot 35.1236 -27.975
rtoes 23.2412
lfemur -30.8919 -14.2057 -14.8277
ltibia 27.4507
lfoot 43.2951 -44.3208
ltoes 54.4593
365
root -5.71674 18.027 -3.71753 -163.518 -7.29365 -175.878
lowerback -8.45921 13.8167 15.9955
upperback -13.3669 15.5072 1.92552
thorax -6.37022 5.39934 -5.22446
lowerneck -13.1365 -16.3422 -3.07778
upperneck 10.1498 -21.0697 -2.73625
head 5.14712 -10.6083 -2.10056
rclavicle -2.38542e-015 -9.70069e-014
rhumerus 100.505 20.564 -55.1394
rradius 58.7134
rwrist -6.95636
rhand -34.5072 17.1337
rfingers 7.12502
rthumb -7.66918 -12.7072
lclavicle -2.38542e-015 -9.70069e-014
lhumerus 65.2992 15.2025 41.9677
lradius 64.1227
lwrist 40.7167
lhand -20.6104 18.8444
lfingers 7.12502
lthumb -174.25 -131.254
rfemur 15.7621 -4.88987 23.1677
rtibia 9.2393
rfoot 34.5549 -28.6362
rtoes 24.2971
lfemur -30.8754 -14.0418 -14.7303
ltibia 27.3324
lfoot 43.3693 -44.1144
ltoes 54.5491
366
root -5.7121 18.0339 -3.69483 -163.528 -7.13342 -175.777
lowerback -8.28992 13.7534 16.1358
upperback -13.3267 15.4607 1.96128
thorax -6.40554 5.36688 -5.29111
lowerneck -13.1588 -16.1694 -3.09713
upperneck 10.2377 -20.8371 -2.73491
head 5.18229 -10.4954 -2.08672
rclavicle -1.59028e-014 -1.09729e-013
rhumerus 99.8152 20.7719 -55.3548
rradius 58.0665
rwrist -7.22632
rhand -35.3359 16.2235
rfingers 7.12502
rthumb -8.4689 -13.5867
lclavicle -1.59028e-014 -1.09729e-013
lhumerus 65.0915 14.382 41.5474
lradius 63.4148
lwrist 41.1378
lhand -20.3477 18.8619
lfingers 7.12502
lthumb -173.996 -131.243
rfemur 15.5253 -4.56375 23.2746
rtibia 9.54296
rfoot 34.0371 -29.1581
rtoes 25.0309
lfemur -30.8905 -13.9452 -14.6064
ltibia 27.2281
lfoot 43.2837 -44.0986
ltoes 54.5759
367
root -5.70519 18.0422 -3.67406 -163.573 -6.93789 -175.715
lowerback -8.27819 13.6444 16.0944
upperback -13.2236 15.3117 2.15859
thorax -6.38536 5.30822 -5.0859
lowerneck -12.8175 -15.9292 -3.28235
upperneck 9.95165 -20.51 -2.61618
head 5.07206 -10.3363 -1.96038
rclavicle -4.92986e-014 4.6118e-014
rhumerus 99.1884 21.1712 -55.4187
rradius 57.4865
rwrist -7.56845
rhand -35.4799 15.8009
rfingers 7.12502
rthumb -8.60789 -14.0036
lclavicle -4.92986e-014 4.6118e-014
lhumerus 64.6577 13.5855 41.1875
lradius 62.6406
lwrist 41.1026
lhand -20.3932 18.7096
lfingers 7.12502
lthumb -174.04 -131.394
rfemur 15.3157 -4.22046 23.3433
rtibia 9.857
rfoot 33.8164 -29.3393
rtoes 25.4504
lfemur -30.8655 -13.841 -14.5254
ltibia 27.1285
lfoot 42.9311 -44.38
ltoes 54.3999
368
root -5.69702 18.0488 -3.65325 -163.601 -6.72895 -175.628
lowerback -8.45308 13.499 15.9374
upperback -12.974 15.0752 2.47387
thorax -6.1669 5.24858 -4.66944
lowerneck -12.7855 -15.6883 -3.36406
upperneck 9.67938 -20.16 -2.65821
head 4.9863 -10.1698 -1.91554
rclavicle -1.98785e-014 -5.08889e-014
rhumerus 98.7967 21.5877 -55.3815
rradius 56.9286
rwrist -8.15156
rhand -34.825 16.3122
rfingers 7.12502
rthumb -7.97582 -13.5173
lclavicle -1.98785e-014 -5.08889e-014
lhumerus 64.5008 13.1858 41.4405
lradius 61.7575
lwrist 42.2553
lhand -19.3444 18.263
lfingers 7.12502
lthumb -173.027 -131.872
rfemur 15.0834 -3.85986 23.4469
rtibia 10.1885
rfoot 33.7395 -29.3012
rtoes 25.0684
lfemur -30.8615 -13.7308 -14.4105
ltibia 27.0278
lfoot 42.8383 -44.3587
ltoes 54.4043
